# xmcd
#
# Track frame offsets: 
#        150
#        11629
#        24401
#        35153
#        44064
#        53212
#        65600
#        78430
#        92270
#        104934
#        115934
#        125793
#        137460
#        149465
#        163554
#        175480
#        188077
#        197280
#        209381
#        219119
#        231034
#        241925
#        255096
#        266147
#        279589
#        289987
#
# Disc length: 4004 seconds
#
# Revision: 0
# Processed by: cddbd v1.5.2PL0 Copyright (c) Steve Scherf et al.
# Submitted via: ExactAudioCopy v0.99pb4
#
DISCID=810fa21a
DTITLE=Various Artist - Juke Joints 3 [Disc B]
DYEAR=2012
DGENRE=Electric Blues
TTITLE0=Houston Boines - Operator Blues - Tk
TTITLE1=John Lee Hooker - My Baby Left Me
TTITLE2=Little Milton - Lookin' for My Baby - Tk 5
TTITLE3=Eddie Taylor - I'm Gonna Love You
TTITLE4=The Sugarman - She's Gone with the Wind
TTITLE5=Big Joe Williams - Eula Mae
TTITLE6=Pete McKinley - Ardelle
TTITLE7=D.C. Washington - Happy Home Blues
TTITLE8=Slim Harpo - I've Got Love If You Want It
TTITLE9=Jimmy Rogers - That's All Right
TTITLE10=Robert Lee Westmoreland - Hello Central, Please Give Me 209
TTITLE11=J.D. Edwards - Crying
TTITLE12=Eddie Kirkland - I'll Move You
TTITLE13=Hank Kilroy - Awful Shame
TTITLE14=J.D. Horton - Cadillac Blues
TTITLE15=Country Jim - Hollywood Boogie
TTITLE16=Hop Wilson - Chicken Stuff
TTITLE17=Sunny James - Please Mam Forgive Me
TTITLE18=Smokey Hogg - You Better Watch That Jive
TTITLE19=Manny Nicholls - Walking Talking Blues
TTITLE20=Johnny Beck - Locked in Jail Blues
TTITLE21=Stick Horse Hammond - Highway 51
TTITLE22=Buddy Chiles - Jet Black Woman
TTITLE23=Lazy Bill Lucas - I Had a Dream
TTITLE24=Clarence London - Got a Letter This Morning
TTITLE25=Junior Blackmon - Down South
EXTD=
EXTT0=
EXTT1=
EXTT2=
EXTT3=
EXTT4=
EXTT5=
EXTT6=
EXTT7=
EXTT8=
EXTT9=
EXTT10=
EXTT11=
EXTT12=
EXTT13=
EXTT14=
EXTT15=
EXTT16=
EXTT17=
EXTT18=
EXTT19=
EXTT20=
EXTT21=
EXTT22=
EXTT23=
EXTT24=
EXTT25=
PLAYORDER=
